<svg width="19" height="22" viewBox="0 0 19 22" fill="none" xmlns="http://www.w3.org/2000/svg">
<path fill-rule="evenodd" clip-rule="evenodd" d="M2.22571 0H16.7743C18.0011 0 19 0.986774 19 2.20952V21.4516L16.6657 19.4137L15.352 18.2124L13.9623 16.936L14.5377 18.9203H2.22571C0.998857 18.9203 0 17.9335 0 16.7108V2.20952C0 0.986774 0.998857 0 2.22571 0ZM11.8669 13.1394C12.1926 13.547 12.5834 14.0082 12.5834 14.0082C14.9829 13.9331 15.9057 12.3779 15.9057 12.3779C15.9057 8.92416 14.3423 6.12473 14.3423 6.12473C12.7789 4.96634 11.2914 4.99852 11.2914 4.99852L11.1394 5.17013C12.9852 5.72787 13.8429 6.53231 13.8429 6.53231C12.7137 5.92094 11.6063 5.62061 10.5749 5.50263C9.79316 5.41682 9.04401 5.43827 8.38173 5.52408C8.32486 5.52408 8.27626 5.53225 8.22149 5.54147C8.21353 5.54281 8.20543 5.54417 8.19716 5.54553C7.81716 5.57771 6.8943 5.71714 5.73259 6.22126C5.33087 6.4036 5.09201 6.53231 5.09201 6.53231C5.09201 6.53231 5.99316 5.68497 7.94744 5.12723L7.83887 4.99852C7.83887 4.99852 6.35144 4.96634 4.78801 6.12473C4.78801 6.12473 3.22459 8.92416 3.22459 12.3779C3.22459 12.3779 4.13659 13.9331 6.53601 14.0082C6.53601 14.0082 6.93773 13.5255 7.26344 13.118C5.88459 12.7104 5.36344 11.8523 5.36344 11.8523C5.36344 11.8523 5.47201 11.9274 5.66744 12.0346C5.6783 12.0454 5.68916 12.0561 5.71087 12.0668C5.72716 12.0775 5.74344 12.0856 5.75973 12.0936C5.77602 12.1017 5.7923 12.1097 5.80859 12.1205C6.08001 12.2706 6.35144 12.3886 6.60116 12.4851C7.0463 12.6567 7.5783 12.8284 8.19716 12.9463C9.01144 13.0965 9.96687 13.1501 11.0092 12.9571C11.5194 12.8713 12.0406 12.7211 12.5834 12.4959C12.9634 12.3564 13.3869 12.1526 13.832 11.863C13.832 11.863 13.2892 12.7425 11.8669 13.1394Z" fill="white"/>
</svg>
