<svg width="17" height="15" viewBox="0 0 17 15" fill="none" xmlns="http://www.w3.org/2000/svg">
<path fill-rule="evenodd" clip-rule="evenodd" d="M8.25447 3.98203L8.29132 4.58757L7.67715 4.51342C5.44156 4.22919 3.4885 3.26527 1.83023 1.64638L1.01953 0.843113L0.810707 1.43629C0.368503 2.75859 0.651022 4.15504 1.57228 5.09425C2.06362 5.61328 1.95307 5.68743 1.10551 5.37848C0.810707 5.27962 0.552755 5.20547 0.528188 5.24254C0.442204 5.32905 0.737006 6.45362 0.970392 6.89851C1.28976 7.5164 1.94078 8.12194 2.65322 8.48032L3.25511 8.76456L2.54267 8.77692C1.8548 8.77692 1.83023 8.78927 1.90393 9.04879C2.1496 9.85206 3.11999 10.7048 4.20094 11.0755L4.96251 11.335L4.2992 11.7305C3.31653 12.2989 2.16189 12.6202 1.00724 12.645C0.454487 12.6573 0 12.7067 0 12.7438C0 12.8674 1.49858 13.5594 2.3707 13.8313C4.98708 14.6346 8.09479 14.2886 10.4286 12.9168C12.0869 11.9405 13.7452 10.0004 14.519 8.12194C14.9367 7.12095 15.3543 5.29197 15.3543 4.41456C15.3543 3.84609 15.3911 3.77195 16.079 3.09226C16.4844 2.6968 16.8652 2.26428 16.9389 2.1407C17.0617 1.9059 17.0494 1.9059 16.423 2.11598C15.3789 2.48672 15.2315 2.43729 15.7474 1.88118C16.1282 1.48573 16.5826 0.768965 16.5826 0.55888C16.5826 0.521806 16.3984 0.583596 16.1896 0.694817C15.9685 0.818397 15.4771 1.00377 15.1086 1.11499L14.4453 1.32507L13.8434 0.91726C13.5118 0.694817 13.045 0.447658 12.7993 0.373511C12.1729 0.200499 11.2148 0.225215 10.6497 0.422943C9.11431 0.97905 8.14392 2.41257 8.25447 3.98203Z" fill="white"/>
</svg>
